<svg width="32" height="32" viewBox="0 0 32 32" fill="none" xmlns="http://www.w3.org/2000/svg">
<path fill-rule="evenodd" clip-rule="evenodd" d="M9.33333 1.66666C9.88562 1.66666 10.3333 2.11437 10.3333 2.66666V7.99999C10.3333 8.55227 9.88562 8.99999 9.33333 8.99999C8.78105 8.99999 8.33333 8.55227 8.33333 7.99999V6.33332H6.66667C6.22464 6.33332 5.80072 6.50892 5.48816 6.82148C5.17559 7.13404 5 7.55796 5 7.99999V12.3333H27V7.99999C27 7.55796 26.8244 7.13404 26.5118 6.82148C26.1993 6.50892 25.7754 6.33332 25.3333 6.33332H24.6667C24.1144 6.33332 23.6667 5.88561 23.6667 5.33332C23.6667 4.78104 24.1144 4.33332 24.6667 4.33332H25.3333C26.3058 4.33332 27.2384 4.71963 27.9261 5.40726C28.6137 6.0949 29 7.02753 29 7.99999V25.3333C29 26.3058 28.6137 27.2384 27.9261 27.926C27.2384 28.6137 26.3058 29 25.3333 29H6.66667C5.69421 29 4.76157 28.6137 4.07394 27.926C3.38631 27.2384 3 26.3058 3 25.3333V7.99999C3 7.02753 3.38631 6.0949 4.07394 5.40726C4.76158 4.71963 5.69421 4.33332 6.66667 4.33332H8.33333V2.66666C8.33333 2.11437 8.78105 1.66666 9.33333 1.66666ZM27 14.3333H5V25.3333C5 25.7754 5.17559 26.1993 5.48816 26.5118C5.80072 26.8244 6.22464 27 6.66667 27H25.3333C25.7754 27 26.1993 26.8244 26.5118 26.5118C26.8244 26.1993 27 25.7754 27 25.3333V14.3333ZM20 1.66666C20.5523 1.66666 21 2.11437 21 2.66666V7.99999C21 8.55227 20.5523 8.99999 20 8.99999C19.4477 8.99999 19 8.55227 19 7.99999V6.33332H14C13.4477 6.33332 13 5.88561 13 5.33332C13 4.78104 13.4477 4.33332 14 4.33332H19V2.66666C19 2.11437 19.4477 1.66666 20 1.66666Z" fill="white"/>
</svg>
