<svg width="64" height="64" viewBox="0 0 64 64" fill="none" xmlns="http://www.w3.org/2000/svg">
<path d="M52.3067 34.6667C52.4228 33.7824 52.4851 32.8918 52.4933 32C52.4851 31.1082 52.4228 30.2176 52.3067 29.3333L58.08 24.8133C58.3407 24.6142 58.5188 24.3259 58.5803 24.0037C58.6418 23.6814 58.5824 23.3478 58.4133 23.0667L52.9467 13.5867C52.7883 13.3023 52.5315 13.0857 52.2245 12.9776C51.9175 12.8696 51.5815 12.8775 51.28 13L44.4667 15.7467C43.0489 14.6646 41.4985 13.7685 39.8533 13.08L38.8267 5.84C38.7814 5.51963 38.6211 5.22666 38.3758 5.01569C38.1305 4.80472 37.8169 4.69015 37.4933 4.69333H26.5333C26.2098 4.69015 25.8961 4.80472 25.6508 5.01569C25.4055 5.22666 25.2453 5.51963 25.2 5.84L24.1733 13.08C22.526 13.7642 20.9751 14.6607 19.56 15.7467L12.72 13C12.4185 12.8775 12.0825 12.8696 11.7755 12.9776C11.4685 13.0857 11.2117 13.3023 11.0533 13.5867L5.58666 23.0667C5.4176 23.3478 5.35814 23.6814 5.41964 24.0037C5.48113 24.3259 5.65928 24.6142 5.91999 24.8133L11.68 29.3333C11.5643 30.2177 11.502 31.1082 11.4933 32C11.5015 32.8918 11.5638 33.7824 11.68 34.6667L5.91999 39.1867C5.65928 39.3858 5.48113 39.6741 5.41964 39.9963C5.35814 40.3186 5.4176 40.6522 5.58666 40.9333L11.0533 50.4133C11.2117 50.6977 11.4685 50.9143 11.7755 51.0224C12.0825 51.1304 12.4185 51.1225 12.72 51L19.5333 48.2533C20.9511 49.3354 22.5014 50.2315 24.1467 50.92L25.1733 58.16C25.2186 58.4804 25.3788 58.7733 25.6241 58.9843C25.8695 59.1953 26.1831 59.3099 26.5067 59.3067H37.44C37.7635 59.3099 38.0772 59.1953 38.3225 58.9843C38.5678 58.7733 38.728 58.4804 38.7733 58.16L39.8 50.92C41.4473 50.2358 42.9982 49.3393 44.4133 48.2533L51.2267 51C51.5282 51.1225 51.8641 51.1304 52.1711 51.0224C52.4781 50.9143 52.735 50.6977 52.8933 50.4133L58.36 40.9333C58.529 40.6522 58.5885 40.3186 58.527 39.9963C58.4655 39.6741 58.2874 39.3858 58.0267 39.1867L52.3067 34.6667ZM32 41.5733C30.106 41.576 28.2538 41.0167 26.6777 39.9664C25.1016 38.9161 23.8725 37.4219 23.1459 35.6728C22.4193 33.9237 22.2278 31.9984 22.5957 30.1405C22.9635 28.2826 23.8743 26.5755 25.2126 25.2354C26.5509 23.8952 28.2567 22.9821 30.1141 22.6116C31.9715 22.2411 33.8971 22.4299 35.6471 23.1541C37.3972 23.8783 38.8931 25.1053 39.9457 26.68C40.9982 28.2546 41.56 30.106 41.56 32C41.5617 33.2566 41.3158 34.5011 40.8361 35.6626C40.3565 36.824 39.6526 37.8794 38.7646 38.7686C37.8767 39.6577 36.8223 40.3631 35.6615 40.8443C34.5008 41.3256 33.2566 41.5733 32 41.5733Z" stroke="white" stroke-width="3" stroke-linecap="round" stroke-linejoin="round"/>
</svg>
