<svg width="64" height="64" viewBox="0 0 64 64" fill="none" xmlns="http://www.w3.org/2000/svg">
<g opacity="0.9">
<path fill-rule="evenodd" clip-rule="evenodd" d="M32 14C33.1046 14 34 14.8954 34 16V30H48C49.1046 30 50 30.8954 50 32C50 33.1046 49.1046 34 48 34H32C30.8954 34 30 33.1046 30 32V16C30 14.8954 30.8954 14 32 14Z" fill="white"/>
<path fill-rule="evenodd" clip-rule="evenodd" d="M3.33337 32C3.33337 16.1674 16.1675 3.33334 32 3.33334C47.8326 3.33334 60.6667 16.1674 60.6667 32C60.6667 47.8326 47.8326 60.6667 32 60.6667C16.1675 60.6667 3.33337 47.8326 3.33337 32ZM32 7.33334C18.3766 7.33334 7.33337 18.3766 7.33337 32C7.33337 45.6234 18.3766 56.6667 32 56.6667C45.6235 56.6667 56.6667 45.6234 56.6667 32C56.6667 18.3766 45.6235 7.33334 32 7.33334Z" fill="white"/>
</g>
</svg>
