<svg width="64" height="64" viewBox="0 0 64 64" fill="none" xmlns="http://www.w3.org/2000/svg">
<path d="M35.2827 32L40.157 37.5521L46.7113 41.7261L47.8541 32.0342L46.7113 22.5586L40.0313 26.2258L35.2827 32Z" fill="#00832D"/>
<path d="M6.99707 40.8264V49.0833C6.99707 50.971 8.53136 52.5 10.4256 52.5H18.7114L20.4256 46.2589L18.7114 40.8264L13.0256 39.1181L6.99707 40.8264Z" fill="#0066DA"/>
<path d="M18.7114 11.5L6.99707 23.1736L13.0256 24.8819L18.7114 23.1736L20.3971 17.8151L18.7114 11.5Z" fill="#E94235"/>
<path d="M18.7114 23.1736H6.99707V40.8264H18.7114V23.1736Z" fill="#2684FC"/>
<path d="M54.1971 16.4428L46.7114 22.5586V41.7261L54.2314 47.8704C55.3571 48.7474 57.0029 47.9473 57.0029 46.5208V17.7639C57.0029 16.3203 55.32 15.5288 54.1971 16.4428ZM35.2829 32V40.8264H18.7114V52.5H43.2829C45.1771 52.5 46.7114 50.971 46.7114 49.0833V41.7261L35.2829 32Z" fill="#00AC47"/>
<path d="M43.2829 11.5H18.7114V23.1736H35.2829V32L46.7114 22.5643V14.9167C46.7114 13.029 45.1771 11.5 43.2829 11.5Z" fill="#FFBA00"/>
</svg>
