<svg width="64" height="64" viewBox="0 0 64 64" fill="none" xmlns="http://www.w3.org/2000/svg">
<path fill-rule="evenodd" clip-rule="evenodd" d="M11.8477 26.0053C11.8477 14.8294 20.8596 5.75238 32 5.75238C43.1405 5.75238 52.1524 14.8294 52.1524 26.0053C52.1524 31.4173 48.795 38.2829 42.7546 46.4215L42.7433 46.4366L41.2901 48.3536C39.5175 50.6428 37.5308 53.0423 35.3292 55.5638L35.3193 55.5751L33.3962 57.7419C33.044 58.1388 32.5395 58.367 32.0089 58.3695C31.4783 58.372 30.9717 58.1486 30.6158 57.7551C27.8694 54.7193 25.2338 51.5873 22.7144 48.3591L22.6982 48.3384L21.2454 46.4215C15.205 38.283 11.8477 31.4173 11.8477 26.0053ZM32 9.48571C22.9408 9.48571 15.581 16.8719 15.581 26.0053C15.581 30.1067 18.244 36.1118 24.2378 44.189L25.6655 46.0725C27.6986 48.6771 29.8095 51.2182 31.9954 53.6959L32.517 53.1083C32.5186 53.1064 32.5203 53.1045 32.5219 53.1026C34.68 50.6308 36.6152 48.2927 38.3324 46.0753L39.7623 44.189C45.7561 36.1118 48.4191 30.1067 48.4191 26.0053C48.4191 16.8719 41.0592 9.48571 32 9.48571Z" fill="white"/>
<path fill-rule="evenodd" clip-rule="evenodd" d="M32.0001 20.1524C28.8232 20.1524 26.2477 22.7278 26.2477 25.9048C26.2477 29.0817 28.8232 31.6571 32.0001 31.6571C35.1771 31.6571 37.7525 29.0817 37.7525 25.9048C37.7525 22.7278 35.1771 20.1524 32.0001 20.1524ZM22.5144 25.9048C22.5144 20.6659 26.7613 16.419 32.0001 16.419C37.2389 16.419 41.4858 20.6659 41.4858 25.9048C41.4858 31.1436 37.2389 35.3905 32.0001 35.3905C26.7613 35.3905 22.5144 31.1436 22.5144 25.9048Z" fill="white"/>
</svg>
