<svg width="24" height="24" viewBox="0 0 24 24" fill="none" xmlns="http://www.w3.org/2000/svg">
<path fill-rule="evenodd" clip-rule="evenodd" d="M7.69134 4.04631C8.52412 2.88961 9.90552 2 12 2C14.0945 2 15.4759 2.88961 16.3087 4.04631C17.1139 5.16476 17.375 6.48432 17.375 7.375V11.25H18.2437C18.6267 11.25 18.9939 11.4021 19.2646 11.6729C19.5354 11.9436 19.6875 12.3108 19.6875 12.6938V20.5562C19.6875 20.9392 19.5354 21.3064 19.2646 21.5771C18.9939 21.8479 18.6267 22 18.2437 22H5.75625C5.37334 22 5.00612 21.8479 4.73536 21.5771C4.46461 21.3064 4.3125 20.9392 4.3125 20.5562V12.6938C4.3125 12.3108 4.46461 11.9436 4.73536 11.6729C5.00612 11.4021 5.37334 11.25 5.75625 11.25H6.625V7.375C6.625 6.48432 6.88609 5.16476 7.69134 4.04631ZM8.125 11.25H15.875V7.375C15.875 6.7244 15.6736 5.73146 15.0913 4.92273C14.5366 4.15225 13.6055 3.5 12 3.5C10.3945 3.5 9.46338 4.15225 8.90866 4.92273C8.32641 5.73146 8.125 6.7244 8.125 7.375V11.25ZM5.8125 12.75V20.5H18.1875V12.75H5.8125Z" fill="white"/>
</svg>
