<svg width="24" height="24" viewBox="0 0 24 24" fill="none" xmlns="http://www.w3.org/2000/svg">
<path fill-rule="evenodd" clip-rule="evenodd" d="M21.52 8.64001C15.8044 4.35335 8.19555 4.35335 2.48 8.64001C2.12654 8.90511 1.62509 8.83347 1.36 8.48001C1.0949 8.12655 1.16654 7.62511 1.52 7.36001C7.80444 2.64668 16.1956 2.64668 22.48 7.36001C22.8335 7.62511 22.9051 8.12655 22.64 8.48001C22.3749 8.83347 21.8735 8.90511 21.52 8.64001ZM18.52 12.64C14.8044 9.85335 9.19555 9.85335 5.48 12.64C5.12654 12.9051 4.62509 12.8335 4.36 12.48C4.0949 12.1265 4.16654 11.6251 4.52 11.36C8.80444 8.14668 15.1956 8.14668 19.48 11.36C19.8335 11.6251 19.9051 12.1265 19.64 12.48C19.3749 12.8335 18.8735 12.9051 18.52 12.64ZM15.0774 16.1793C13.0861 14.9403 10.9139 14.9403 8.92264 16.1793C8.5475 16.4127 8.05417 16.2978 7.82075 15.9227C7.58733 15.5475 7.70222 15.0542 8.07736 14.8208C10.5861 13.2598 13.4139 13.2598 15.9226 14.8208C16.2978 15.0542 16.4127 15.5475 16.1792 15.9227C15.9458 16.2978 15.4525 16.4127 15.0774 16.1793ZM12.5482 18.9071C12.8751 19.2043 12.8992 19.7102 12.6019 20.0372L12.5919 20.0482C12.2947 20.3751 11.7888 20.3992 11.4618 20.1019C11.1349 19.8047 11.1108 19.2988 11.4081 18.9719L11.4181 18.9609C11.7153 18.6339 12.2212 18.6099 12.5482 18.9071Z" fill="white"/>
</svg>
