<svg width="64" height="64" viewBox="0 0 64 64" fill="none" xmlns="http://www.w3.org/2000/svg">
<path d="M57.5 14V50C57.5 50.9283 57.1313 51.8185 56.4749 52.4749C55.8185 53.1313 54.9283 53.5 54 53.5H36C35.6022 53.5 35.2206 53.342 34.9393 53.0607C34.658 52.7794 34.5 52.3978 34.5 52C34.5 51.6022 34.658 51.2206 34.9393 50.9393C35.2206 50.658 35.6022 50.5 36 50.5H54C54.1326 50.5 54.2598 50.4473 54.3536 50.3536C54.4473 50.2598 54.5 50.1326 54.5 50V14C54.5 13.8674 54.4473 13.7402 54.3536 13.6464C54.2598 13.5527 54.1326 13.5 54 13.5H10C9.86739 13.5 9.74021 13.5527 9.64645 13.6464C9.55268 13.7402 9.5 13.8674 9.5 14V24C9.5 24.3978 9.34196 24.7794 9.06066 25.0607C8.77936 25.342 8.39782 25.5 8 25.5C7.60218 25.5 7.22064 25.342 6.93934 25.0607C6.65804 24.7794 6.5 24.3978 6.5 24V14C6.5 13.0717 6.86875 12.1815 7.52513 11.5251C8.1815 10.8687 9.07174 10.5 10 10.5H54C54.9283 10.5 55.8185 10.8687 56.4749 11.5251C57.1313 12.1815 57.5 13.0717 57.5 14ZM8 46.5C7.60218 46.5 7.22064 46.658 6.93934 46.9393C6.65804 47.2206 6.5 47.6022 6.5 48C6.5 48.3978 6.65804 48.7794 6.93934 49.0607C7.22064 49.342 7.60218 49.5 8 49.5C8.66304 49.5 9.29893 49.7634 9.76777 50.2322C10.2366 50.7011 10.5 51.337 10.5 52C10.5 52.3978 10.658 52.7794 10.9393 53.0607C11.2206 53.342 11.6022 53.5 12 53.5C12.3978 53.5 12.7794 53.342 13.0607 53.0607C13.342 52.7794 13.5 52.3978 13.5 52C13.5 50.5413 12.9205 49.1424 11.8891 48.1109C10.8576 47.0795 9.45869 46.5 8 46.5ZM8 38.5C7.60218 38.5 7.22064 38.658 6.93934 38.9393C6.65804 39.2206 6.5 39.6022 6.5 40C6.5 40.3978 6.65804 40.7794 6.93934 41.0607C7.22064 41.342 7.60218 41.5 8 41.5C10.7848 41.5 13.4555 42.6062 15.4246 44.5754C17.3938 46.5445 18.5 49.2152 18.5 52C18.5 52.3978 18.658 52.7794 18.9393 53.0607C19.2206 53.342 19.6022 53.5 20 53.5C20.3978 53.5 20.7794 53.342 21.0607 53.0607C21.342 52.7794 21.5 52.3978 21.5 52C21.496 48.4208 20.0724 44.9893 17.5416 42.4584C15.0107 39.9276 11.5792 38.504 8 38.5ZM8 30.5C7.60218 30.5 7.22064 30.658 6.93934 30.9393C6.65804 31.2206 6.5 31.6022 6.5 32C6.5 32.3978 6.65804 32.7794 6.93934 33.0607C7.22064 33.342 7.60218 33.5 8 33.5C12.9047 33.506 17.6068 35.457 21.0749 38.9251C24.543 42.3932 26.494 47.0953 26.5 52C26.5 52.3978 26.658 52.7794 26.9393 53.0607C27.2206 53.342 27.6022 53.5 28 53.5C28.3978 53.5 28.7794 53.342 29.0607 53.0607C29.342 52.7794 29.5 52.3978 29.5 52C29.4934 46.2999 27.2261 40.8351 23.1955 36.8045C19.1649 32.7739 13.7001 30.5066 8 30.5Z" fill="white"/>
<path fill-rule="evenodd" clip-rule="evenodd" d="M10.0001 10.9C9.17793 10.9 8.38943 11.2266 7.80807 11.808C7.2267 12.3893 6.9001 13.1778 6.9001 14V24C6.9001 24.2917 7.01599 24.5715 7.22228 24.7778C7.42857 24.9841 7.70836 25.1 8.0001 25.1C8.29183 25.1 8.57162 24.9841 8.77792 24.7778C8.98421 24.5715 9.1001 24.2917 9.1001 24V14C9.1001 13.7613 9.19492 13.5324 9.3637 13.3636C9.53248 13.1948 9.7614 13.1 10.0001 13.1H54.0001C54.2388 13.1 54.4677 13.1948 54.6365 13.3636C54.8053 13.5324 54.9001 13.7613 54.9001 14V50C54.9001 50.2387 54.8053 50.4676 54.6365 50.6364C54.4677 50.8052 54.2388 50.9 54.0001 50.9H36.0001C35.7084 50.9 35.4286 51.0159 35.2223 51.2222C35.016 51.4285 34.9001 51.7083 34.9001 52C34.9001 52.2917 35.016 52.5715 35.2223 52.7778C35.4286 52.9841 35.7084 53.1 36.0001 53.1H54.0001C54.8223 53.1 55.6108 52.7734 56.1921 52.192C56.7735 51.6107 57.1001 50.8222 57.1001 50V14C57.1001 13.1778 56.7735 12.3893 56.1921 11.808C55.6108 11.2266 54.8223 10.9 54.0001 10.9H10.0001ZM7.24238 11.2423C7.97377 10.5109 8.96575 10.1 10.0001 10.1H54.0001C55.0344 10.1 56.0264 10.5109 56.7578 11.2423C57.4892 11.9737 57.9001 12.9657 57.9001 14V50C57.9001 51.0343 57.4892 52.0263 56.7578 52.7577C56.0264 53.4891 55.0344 53.9 54.0001 53.9H36.0001C35.4962 53.9 35.0129 53.6998 34.6566 53.3435C34.3003 52.9872 34.1001 52.5039 34.1001 52C34.1001 51.4961 34.3003 51.0128 34.6566 50.6565C35.0129 50.3002 35.4962 50.1 36.0001 50.1H54.0001C54.0266 50.1 54.0521 50.0895 54.0708 50.0707C54.0896 50.052 54.1001 50.0265 54.1001 50V14C54.1001 13.9735 54.0896 13.948 54.0708 13.9293C54.0521 13.9105 54.0266 13.9 54.0001 13.9H10.0001C9.97358 13.9 9.94814 13.9105 9.92939 13.9293C9.91063 13.948 9.9001 13.9735 9.9001 14V24C9.9001 24.5039 9.69992 24.9872 9.3436 25.3435C8.98728 25.6998 8.50401 25.9 8.0001 25.9C7.49619 25.9 7.01291 25.6998 6.65659 25.3435C6.30028 24.9872 6.1001 24.5039 6.1001 24V14C6.1001 12.9657 6.51099 11.9737 7.24238 11.2423ZM6.65659 30.6565C7.01291 30.3002 7.49619 30.1 8.0001 30.1H8.00056C13.8066 30.1067 19.3729 32.4162 23.4784 36.5217C27.5839 40.6272 29.8934 46.1935 29.9001 51.9995L29.9001 52C29.9001 52.5039 29.6999 52.9872 29.3436 53.3435C28.9873 53.6998 28.504 53.9 28.0001 53.9C27.4962 53.9 27.0129 53.6998 26.6566 53.3435C26.3004 52.9873 26.1002 52.5042 26.1001 52.0005C26.0943 47.2017 24.1854 42.6012 20.7922 39.2079C17.3989 35.8147 12.7984 33.9058 7.99961 33.9C7.49588 33.8999 7.0128 33.6997 6.65659 33.3435C6.30028 32.9872 6.1001 32.5039 6.1001 32C6.1001 31.4961 6.30028 31.0128 6.65659 30.6565ZM7.9997 30.9C7.7081 30.9001 7.42848 31.016 7.22228 31.2222C7.01599 31.4285 6.9001 31.7083 6.9001 32C6.9001 32.2917 7.01599 32.5715 7.22228 32.7778C7.42857 32.9841 7.70836 33.1 8.0001 33.1H8.00058C13.0112 33.1061 17.8148 35.0992 21.3578 38.6423C24.9009 42.1853 26.894 46.9889 26.9001 51.9995V52C26.9001 52.2917 27.016 52.5715 27.2223 52.7778C27.4286 52.9841 27.7084 53.1 28.0001 53.1C28.2918 53.1 28.5716 52.9841 28.7779 52.7778C28.9842 52.5715 29.1001 52.2917 29.1001 52H29.5001L29.1001 52.0005C29.0936 46.4063 26.8684 41.0431 22.9127 37.0874C18.9571 33.1317 13.5939 30.9065 7.9997 30.9ZM6.65659 38.6565C7.01291 38.3002 7.49619 38.1 8.0001 38.1H8.00054C11.6857 38.1041 15.2187 39.5698 17.8245 42.1756C20.4303 44.7814 21.896 48.3144 21.9001 51.9996V52C21.9001 52.5039 21.6999 52.9872 21.3436 53.3435C20.9873 53.6998 20.504 53.9 20.0001 53.9C19.4962 53.9 19.0129 53.6998 18.6566 53.3435C18.3003 52.9872 18.1001 52.5039 18.1001 52C18.1001 49.3213 17.036 46.7523 15.1419 44.8582C13.2478 42.9641 10.6788 41.9 8.0001 41.9C7.49619 41.9 7.01291 41.6998 6.65659 41.3435C6.30028 40.9872 6.1001 40.5039 6.1001 40C6.1001 39.4961 6.30028 39.0128 6.65659 38.6565ZM7.99965 38.9C7.70807 38.9001 7.42846 39.016 7.22228 39.2222C7.01599 39.4285 6.9001 39.7083 6.9001 40C6.9001 40.2917 7.01599 40.5715 7.22228 40.7778C7.42857 40.9841 7.70836 41.1 8.0001 41.1C10.891 41.1 13.6634 42.2484 15.7076 44.2925C17.7517 46.3367 18.9001 49.1091 18.9001 52C18.9001 52.2917 19.016 52.5715 19.2223 52.7778C19.4286 52.9841 19.7084 53.1 20.0001 53.1C20.2918 53.1 20.5716 52.9841 20.7779 52.7778C20.9841 52.5716 21.1 52.292 21.1001 52.0004C21.0962 48.5272 19.7148 45.1973 17.2588 42.7413C14.8028 40.2853 11.4729 38.9039 7.99965 38.9ZM6.65659 46.6565C7.01291 46.3002 7.49619 46.1 8.0001 46.1C9.56487 46.1 11.0656 46.7216 12.172 47.8281C13.2785 48.9345 13.9001 50.4352 13.9001 52C13.9001 52.5039 13.6999 52.9872 13.3436 53.3435C12.9873 53.6998 12.504 53.9 12.0001 53.9C11.4962 53.9 11.0129 53.6998 10.6566 53.3435C10.3003 52.9872 10.1001 52.5039 10.1001 52C10.1001 51.443 9.87885 50.9089 9.48502 50.5151C9.0912 50.1213 8.55705 49.9 8.0001 49.9C7.49619 49.9 7.01291 49.6998 6.65659 49.3435C6.30028 48.9872 6.1001 48.5039 6.1001 48C6.1001 47.4961 6.30028 47.0128 6.65659 46.6565ZM8.0001 46.9C7.70836 46.9 7.42857 47.0159 7.22228 47.2222C7.01599 47.4285 6.9001 47.7083 6.9001 48C6.9001 48.2917 7.01599 48.5715 7.22228 48.7778C7.42857 48.9841 7.70836 49.1 8.0001 49.1C8.76922 49.1 9.50685 49.4055 10.0507 49.9494C10.5946 50.4932 10.9001 51.2309 10.9001 52C10.9001 52.2917 11.016 52.5715 11.2223 52.7778C11.4286 52.9841 11.7084 53.1 12.0001 53.1C12.2918 53.1 12.5716 52.9841 12.7779 52.7778C12.9842 52.5715 13.1001 52.2917 13.1001 52C13.1001 50.6474 12.5628 49.3502 11.6063 48.3938C10.6499 47.4373 9.3527 46.9 8.0001 46.9Z" fill="white"/>
</svg>
